
        <svg xmlns="http://www.w3.org/2000/svg" xmlns:xlink="http://www.w3.org/1999/xlink" version="1.1" width="3300" height="3294.46760381826" viewBox="0 0 3300 3294.46760381826">
			
			<g transform="scale(15) translate(10, 10)">
				<defs id="SvgjsDefs1001"/><g id="SvgjsG1007" featureKey="symbolGroupContainer" transform="matrix(1,0,0,1,49,0)" fill="#fff"><rect xmlns="http://www.w3.org/2000/svg" width="103" height="88" rx="10" ry="10"/></g><g id="SvgjsG1008" featureKey="xtWca3-0" transform="matrix(3.220858573913574,0,0,3.220858573913574,66.294477266205,3.1227013086399964)" fill="#000000"><path d="M10.38 5.24 l-0.2 0.2 l0 0 l0 10.6 c0 2.68 -2.08 4.04 -4.54 4.04 c-2.3 0 -4.6 -1.36 -4.6 -4.04 l0 -10.62 l-0.02 0.02 l-0.18 -0.2 l3.72 0 l-0.2 0.2 l0 -0.02 l0 10.62 c0 1.24 2.5 1.26 2.5 0 l0 -10.62 l0 0.02 l-0.2 -0.2 l3.72 0 z M11.56 5.24 l8.84 0 l0 3.1 l-2.78 0 l0 11.48 l0.18 0.18 l-3.58 0 l0.18 -0.18 l0 -11.48 l-2.84 0 l0 -3.1 z"/></g><g id="SvgjsG1009" featureKey="dFhhLb-0" transform="matrix(3.5186476707458496,0,0,3.5186476707458496,-1.970376627403396,90.9697515548376)" fill="#fff"><path d="M9.6 5.039999999999999 l0 1.44 c0 0.22666 -0.05334 0.41332 -0.16 0.55998 s-0.21332 0.26 -0.31998 0.34 c-0.05334 0.05334 -0.09668 0.10668 -0.13002 0.16002 s-0.05668 0.14 -0.07002 0.26 l0 9.34 c0 0.50666 -0.10666 0.95 -0.32 1.33 s-0.49334 0.69666 -0.84 0.95 s-0.74666 0.44 -1.2 0.56 s-0.92668 0.18 -1.42 0.18 s-0.97334 -0.06 -1.44 -0.18 s-0.88332 -0.30666 -1.25 -0.56 s-0.66 -0.57 -0.88 -0.95 s-0.33 -0.82334 -0.33 -1.33 l0 -9.32 c0 -0.12 -0.02 -0.21 -0.06 -0.27 s-0.09334 -0.11 -0.16 -0.15 c-0.10666 -0.06666 -0.21 -0.17666 -0.31 -0.33 s-0.15 -0.35668 -0.15 -0.61002 l0 -1.42 l4.04 0 l0 1.32 c0 0.22666 -0.05334 0.43332 -0.16 0.61998 s-0.21332 0.32 -0.31998 0.4 c-0.06666 0.05334 -0.11666 0.10668 -0.15 0.16002 s-0.05 0.14 -0.05 0.26 l0 8.64 c0 0.52 0.11 0.88334 0.33 1.09 s0.51666 0.31 0.89 0.31 s0.67 -0.10334 0.89 -0.31 s0.33 -0.57 0.33 -1.09 l0 -8.62 c0 -0.12 -0.03 -0.23 -0.09 -0.33 s-0.12334 -0.17666 -0.19 -0.23 c-0.10666 -0.06666 -0.2 -0.17332 -0.28 -0.31998 s-0.12 -0.34666 -0.12 -0.6 l0 -1.3 l3.92 0 z M20.54 5.039999999999999 l0 1.3401 c0 0.21334 -0.05 0.39 -0.15 0.53 s-0.20334 0.25 -0.31 0.33 c-0.04 0.02666 -0.07666 0.06332 -0.11 0.10998 s-0.05668 0.11666 -0.07002 0.21 l0 11.86 c0 0.24 -0.04334 0.39666 -0.13 0.47 s-0.20332 0.11 -0.34998 0.11 l-1.22 0 c-0.37334 0 -0.63334 -0.16 -0.78 -0.48 c-0.04 -0.08 -0.14666 -0.32334 -0.32 -0.73 s-0.38 -0.89 -0.62 -1.45 s-0.49334 -1.1567 -0.76 -1.79 s-0.51332 -1.22 -0.73998 -1.76 s-0.42 -0.99334 -0.58 -1.36 s-0.24 -0.55666 -0.24 -0.57 s-0.0066602 -0.01334 -0.02 0 s-0.02 0.06 -0.02 0.14 l0 5.38 c0 0.12 0.02666 0.20666 0.08 0.26 s0.11334 0.1 0.18 0.14 c0.09334 0.06666 0.19 0.17332 0.29 0.31998 s0.15 0.33332 0.15 0.55998 l0 1.34 l-4.02 0 l0 -1.36 c0 -0.21334 0.05 -0.39 0.15 -0.53 s0.20334 -0.24334 0.31 -0.31 c0.04 -0.04 0.07666 -0.08 0.11 -0.12 s0.05668 -0.10666 0.07002 -0.2 l0 -10.02 c-0.13334 -0.04 -0.25334 -0.10666 -0.36 -0.2 c-0.09334 -0.08 -0.17668 -0.19334 -0.25002 -0.34 s-0.11 -0.33332 -0.11 -0.55998 l0 -1.32 l2.78 0 c0.16 0 0.3 0.08 0.42 0.24 s0.2 0.30666 0.24 0.44 c0.02666 0.09334 0.11332 0.32334 0.25998 0.69 s0.32666 0.80666 0.54 1.32 s0.44334 1.0633 0.69 1.65 s0.47666 1.14 0.69 1.66 s0.39668 0.97334 0.55002 1.36 s0.25 0.63332 0.29 0.73998 c0.01334 0.02666 0.02334 0.02666 0.03 0 s0.01 -0.06 0.01 -0.1 l0 -5.38 c0 -0.12 -0.02666 -0.21 -0.08 -0.27 s-0.11334 -0.11 -0.18 -0.15 c-0.09334 -0.06666 -0.18668 -0.17 -0.28002 -0.31 s-0.14 -0.33 -0.14 -0.57 l0 -1.32 l4 0 z M28.82 5.039999999999999 c0.10666 0 0.21998 0.053282 0.33998 0.15994 s0.18 0.24 0.18 0.4 l0 2.62 l-0.86 0 c-0.28 0 -0.53 -0.06666 -0.75 -0.2 s-0.36334 -0.26 -0.43 -0.38 c-0.04 -0.06666 -0.09 -0.12666 -0.15 -0.18 s-0.16334 -0.08 -0.31 -0.08 l-1.44 0 c-0.09334 0 -0.17334 0.03 -0.24 0.09 s-0.1 0.13 -0.1 0.21 l0 3.34 c0 0.12 0.03334 0.2 0.1 0.24 s0.15332 0.06 0.25998 0.06 l2.42 0 c0.10666 0 0.18 0.08 0.22 0.24 s0.06 0.28666 0.06 0.38 l0 1.26 c0 0.18666 -0.08666 0.28 -0.26 0.28 l-2.5 0 c-0.06666 0 -0.13332 0.02666 -0.19998 0.08 s-0.1 0.12668 -0.1 0.22002 l0 3.6 c0 0.14666 0.02 0.24666 0.06 0.3 s0.09334 0.1 0.16 0.14 c0.10666 0.08 0.21 0.19334 0.31 0.34 s0.15 0.33332 0.15 0.55998 l0 1.26 l-4.08 0 l0 -1.26 c0 -0.22666 0.05334 -0.41332 0.16 -0.55998 s0.21332 -0.26 0.31998 -0.34 c0.05334 -0.04 0.09668 -0.08 0.13002 -0.12 s0.05668 -0.11334 0.07002 -0.22 l0 -9.82 c0 -0.21334 -0.08 -0.35334 -0.24 -0.42 c-0.13334 -0.06666 -0.24 -0.17332 -0.32 -0.31998 s-0.12 -0.37332 -0.12 -0.67998 l0 -1.2 l7.16 0 l0 0 z M34.580000000000005 20.14 c-1.24 0 -2.22 -0.27666 -2.94 -0.83 s-1.08 -1.3433 -1.08 -2.37 l0 -8.88 c0 -1.0267 0.35666 -1.82 1.07 -2.38 s1.6967 -0.84 2.95 -0.84 c1.2667 0 2.2434 0.28 2.93 0.84 s1.03 1.3533 1.03 2.38 l0 8.88 c0 1.0267 -0.34666 1.8167 -1.04 2.37 s-1.6667 0.83 -2.92 0.83 z M35.760000000000005 8.3 c0 -0.24 -0.04664 -0.43336 -0.13998 -0.58002 s-0.20334 -0.26 -0.33 -0.34 s-0.25666 -0.13666 -0.39 -0.17 s-0.24 -0.05 -0.32 -0.05 s-0.18666 0.01334 -0.32 0.04 s-0.26668 0.07666 -0.40002 0.15 s-0.25 0.17668 -0.35 0.31002 s-0.15 0.31334 -0.15 0.54 l0 8.56 c0 0.2 0.04 0.36666 0.12 0.5 s0.18 0.24 0.3 0.32 s0.25334 0.14 0.4 0.18 s0.28 0.06 0.4 0.06 c0.28 0 0.54666 -0.08 0.8 -0.24 s0.38 -0.44 0.38 -0.84 l0 -8.44 z M47.86000000000001 16.64 l-0.000078126 2.58 c0 0.26666 -0.07334 0.46332 -0.22 0.58998 s-0.27332 0.19 -0.37998 0.19 l-0.28 0 l-7.02 0 l0 -1.28 c0 -0.29334 0.03666 -0.51668 0.11 -0.67002 s0.17668 -0.26334 0.31002 -0.33 c0.06666 -0.02666 0.12666 -0.07332 0.18 -0.13998 s0.08 -0.14666 0.08 -0.24 l0 -9.58 l0 -0.12 c0 -0.13334 -0.01666 -0.22668 -0.05 -0.28002 s-0.08334 -0.10668 -0.15 -0.16002 c-0.10666 -0.08 -0.21332 -0.19334 -0.31998 -0.34 s-0.16 -0.33332 -0.16 -0.55998 l0 -1.26 l4.12 0 l0 1.26 c0 0.22666 -0.05334 0.41332 -0.16 0.55998 s-0.21332 0.26 -0.31998 0.34 c-0.06666 0.05334 -0.11666 0.10668 -0.15 0.16002 s-0.05 0.14668 -0.05 0.28002 l0 9.72 c0 0.22666 0.08666 0.34 0.26 0.34 l1.48 0 c0.09334 0 0.18334 -0.03334 0.27 -0.1 s0.15 -0.13332 0.19 -0.19998 c0.06666 -0.13334 0.18 -0.29334 0.34 -0.48 s0.38666 -0.28 0.68 -0.28 l1.24 0 z M54.120000000000005 5.0600000000000005 c1.04 0 1.8466 0.29336 2.42 0.88002 s0.86 1.38 0.86 2.38 l0 8.44 c0 1 -0.28666 1.7933 -0.86 2.38 s-1.38 0.88 -2.42 0.88 l-5.14 0 l0 -1.2 c0 -0.29334 0.03666 -0.51668 0.11 -0.67002 s0.17668 -0.26334 0.31002 -0.33 c0.16 -0.09334 0.24 -0.23334 0.24 -0.42 l0 -9.68 c0 -0.21334 -0.08666 -0.36668 -0.26 -0.46002 c-0.26666 -0.14666 -0.4 -0.45332 -0.4 -0.91998 l0 -1.28 l5.14 0 z M54.660000000000004 8.68 c0 -0.44 -0.09664 -0.76002 -0.28998 -0.96002 s-0.45668 -0.3 -0.79002 -0.3 l-0.9 0 c-0.14666 0.01334 -0.23 0.06 -0.25 0.14 s-0.03 0.16 -0.03 0.24 l0 9.64 c0 0.06666 0.01 0.12666 0.03 0.18 s0.08334 0.08668 0.19 0.10002 l0.8 0 c0.42666 0 0.74 -0.06666 0.94 -0.2 s0.3 -0.35334 0.3 -0.66 l0 -8.18 z"/></g><g id="SvgjsG1010" featureKey="dFhhLb-1" transform="matrix(1.8050541877746582,0,0,1.8050541877746582,-0.8303620237369203,163.33566448758387)" fill="#fff"><path d="M8.62 5.0600000000000005 c0.28 0 0.4767 0.046582 0.59004 0.13992 s0.17 0.31334 0.17 0.66 l0 1.4 l0 1 l-1.16 0 c-0.34666 0 -0.60666 -0.16 -0.78 -0.48 c-0.06666 -0.14666 -0.13 -0.24666 -0.19 -0.3 s-0.20334 -0.08 -0.43 -0.08 l-0.26 0 c-0.17334 0 -0.26 0.11334 -0.26 0.34 l-0.04 9.68 c0 0.13334 0.02666 0.22668 0.08 0.28002 s0.11334 0.10668 0.18 0.16002 c0.09334 0.06666 0.18668 0.17 0.28002 0.31 s0.14 0.33 0.14 0.57 l0 1.28 l-4.08 0 l0 -1.28 c0 -0.22666 0.05 -0.41332 0.15 -0.55998 s0.20334 -0.25332 0.31 -0.31998 c0.06666 -0.05334 0.12 -0.11334 0.16 -0.18 s0.06 -0.15332 0.06 -0.25998 l0 -9.74 c0 -0.09334 -0.04 -0.16334 -0.12 -0.21 s-0.15334 -0.07 -0.22 -0.07 l-0.2 0 c-0.08 0 -0.17666 0.02 -0.29 0.06 s-0.21 0.14666 -0.29 0.32 c-0.09334 0.18666 -0.19668 0.31332 -0.31002 0.37998 s-0.31668 0.1 -0.61002 0.1 l-1.04 0 l0 -1.1 l0 -1.3 c0 -0.30666 0.07334 -0.51666 0.22 -0.63 s0.33332 -0.17 0.55998 -0.17 l7.38 0 l0 0 z M14.259999999999998 7.359999999999999 c-0.06666 0 -0.12998 0.030058 -0.18998 0.090058 s-0.09 0.12334 -0.09 0.19 l0 3.32 c0 0.09334 0.03 0.16334 0.09 0.21 s0.13 0.07 0.21 0.07 l2.52 0 c0.06666 0 0.13666 0.02334 0.21 0.07 s0.11 0.12332 0.11 0.22998 l0 1.6 c0 0.18666 -0.1 0.28 -0.3 0.28 l-2.54 0 c-0.2 0 -0.3 0.08666 -0.3 0.26 l0 3.74 c0 0.08 0.03334 0.14666 0.1 0.2 s0.14 0.08 0.22 0.08 l1.6 0 c0.12 0 0.21334 -0.06666 0.28 -0.2 c0.02666 -0.06666 0.06 -0.14666 0.1 -0.24 s0.09666 -0.18 0.17 -0.26 s0.16334 -0.15 0.27 -0.21 s0.23332 -0.09 0.37998 -0.09 l1.24 0 l0 2.8 c0 0.14666 -0.07334 0.26666 -0.22 0.36 s-0.29332 0.14 -0.43998 0.14 l-1.3 0 l-4.58 0 l-1.2 0 l0 -1.2 c0 -0.29334 0.04 -0.51668 0.12 -0.67002 s0.18666 -0.26334 0.32 -0.33 c0.16 -0.09334 0.24 -0.23334 0.24 -0.42 l0 -9.72 c0 -0.21334 -0.08666 -0.36668 -0.26 -0.46002 c-0.13334 -0.06666 -0.23668 -0.17 -0.31002 -0.31 s-0.11 -0.34334 -0.11 -0.61 l0 -1.26 l7.16 0 c0.16 0 0.29666 0.06 0.41 0.18 s0.17 0.23334 0.17 0.34 l0 2.64 l-1.18 0 c-0.26666 0 -0.48 -0.06666 -0.64 -0.2 s-0.27334 -0.26 -0.34 -0.38 c-0.09334 -0.16 -0.23334 -0.24 -0.42 -0.24 l-1.5 0 l0 0 z M23.900000000000002 20.1 c-0.49334 0 -0.97676 -0.05998 -1.4501 -0.17998 s-0.89334 -0.30334 -1.26 -0.55 s-0.66332 -0.56 -0.88998 -0.94 s-0.34 -0.82334 -0.34 -1.33 l0 -9.28 c0 -0.50666 0.11334 -0.95 0.34 -1.33 s0.52666 -0.69334 0.9 -0.94 s0.79668 -0.43332 1.27 -0.55998 s0.95668 -0.19 1.45 -0.19 s0.97668 0.06334 1.45 0.19 s0.89334 0.31332 1.26 0.55998 s0.66 0.56 0.88 0.94 s0.33 0.82334 0.33 1.33 l0 1.48 l-1.5 0 c-0.33334 0 -0.61334 -0.1 -0.84 -0.3 s-0.34 -0.46 -0.34 -0.78 l0 -0.02 c0 -0.13334 -0.01666 -0.26668 -0.05 -0.40002 s-0.09334 -0.25 -0.18 -0.35 s-0.21332 -0.18 -0.37998 -0.24 s-0.38332 -0.09 -0.64998 -0.09 c-0.25334 0 -0.46 0.03334 -0.62 0.1 s-0.28666 0.14666 -0.38 0.24 s-0.15668 0.2 -0.19002 0.32 s-0.05 0.22666 -0.05 0.32 l0 8.76 c0 0.18666 0.12 0.37666 0.36 0.57 s0.53334 0.29 0.88 0.29 s0.64666 -0.08 0.9 -0.24 s0.38 -0.34666 0.38 -0.56 l0 -0.2 c0 -0.30666 0.09 -0.57 0.27 -0.79 s0.45 -0.33 0.81 -0.33 l1.58 0 l0 1.5 c0 0.50666 -0.11334 0.95 -0.34 1.33 s-0.52332 0.69334 -0.88998 0.94 s-0.78666 0.43 -1.26 0.55 s-0.95668 0.18 -1.45 0.18 z M38.06 17.4 c0 0.14666 0.02002 0.24666 0.06002 0.3 s0.08666 0.1 0.14 0.14 c0.10666 0.08 0.21332 0.19334 0.31998 0.34 s0.16 0.33332 0.16 0.55998 l0 1.26 l-4.1 0 l0 -1.26 c0 -0.22666 0.05334 -0.41332 0.16 -0.55998 s0.21332 -0.26 0.31998 -0.34 c0.06666 -0.04 0.11666 -0.08666 0.15 -0.14 s0.05 -0.15334 0.05 -0.3 l0 -3.74 c0 -0.18666 -0.1 -0.28 -0.3 -0.28 l-2.04 0 c-0.18666 0 -0.28 0.09334 -0.28 0.28 l0 3.74 c0 0.14666 0.01666 0.24666 0.05 0.3 s0.08334 0.1 0.15 0.14 c0.10666 0.08 0.21332 0.19334 0.31998 0.34 s0.16 0.33332 0.16 0.55998 l0 1.26 l-4.12 0 l0 -1.26 c0 -0.22666 0.05334 -0.41332 0.16 -0.55998 s0.21332 -0.26 0.31998 -0.34 c0.06666 -0.04 0.11666 -0.08666 0.15 -0.14 s0.05 -0.15334 0.05 -0.3 l0.02 0 l0 -0.52 l0 -9.24 l-0.02 0 c0 -0.13334 -0.01666 -0.22668 -0.05 -0.28002 s-0.08334 -0.10668 -0.15 -0.16002 c-0.10666 -0.08 -0.21332 -0.19334 -0.31998 -0.34 s-0.16 -0.33332 -0.16 -0.55998 l0 -1.26 l4.12 0 l0 1.26 c0 0.22666 -0.05334 0.41332 -0.16 0.55998 s-0.21332 0.26 -0.31998 0.34 c-0.06666 0.05334 -0.11666 0.10668 -0.15 0.16002 s-0.05 0.14668 -0.05 0.28002 l0 3.1 c0 0.10666 0.03334 0.18 0.1 0.22 s0.13332 0.06 0.19998 0.06 l2.04 0 c0.18666 0 0.28 -0.09334 0.28 -0.28 l0 -3.1 c0 -0.13334 -0.01666 -0.22668 -0.05 -0.28002 s-0.08334 -0.10668 -0.15 -0.16002 c-0.10666 -0.08 -0.21332 -0.19334 -0.31998 -0.34 s-0.16 -0.33332 -0.16 -0.55998 l0 -1.26 l4.1 0 l0 1.26 c0 0.22666 -0.05334 0.41332 -0.16 0.55998 s-0.21332 0.26 -0.31998 0.34 c-0.05334 0.05334 -0.1 0.10668 -0.14 0.16002 s-0.06 0.14668 -0.06 0.28002 l0 9.76 z M49.68000000000001 5.039999999999999 l0 1.3401 c0 0.21334 -0.05 0.39 -0.15 0.53 s-0.20334 0.25 -0.31 0.33 c-0.04 0.02666 -0.07666 0.06332 -0.11 0.10998 s-0.05668 0.11666 -0.07002 0.21 l0 11.86 c0 0.24 -0.04334 0.39666 -0.13 0.47 s-0.20332 0.11 -0.34998 0.11 l-1.22 0 c-0.37334 0 -0.63334 -0.16 -0.78 -0.48 c-0.04 -0.08 -0.14666 -0.32334 -0.32 -0.73 s-0.38 -0.89 -0.62 -1.45 s-0.49334 -1.1567 -0.76 -1.79 s-0.51332 -1.22 -0.73998 -1.76 s-0.42 -0.99334 -0.58 -1.36 s-0.24 -0.55666 -0.24 -0.57 s-0.0066602 -0.01334 -0.02 0 s-0.02 0.06 -0.02 0.14 l0 5.38 c0 0.12 0.02666 0.20666 0.08 0.26 s0.11334 0.1 0.18 0.14 c0.09334 0.06666 0.19 0.17332 0.29 0.31998 s0.15 0.33332 0.15 0.55998 l0 1.34 l-4.02 0 l0 -1.36 c0 -0.21334 0.05 -0.39 0.15 -0.53 s0.20334 -0.24334 0.31 -0.31 c0.04 -0.04 0.07666 -0.08 0.11 -0.12 s0.05668 -0.10666 0.07002 -0.2 l0 -10.02 c-0.13334 -0.04 -0.25334 -0.10666 -0.36 -0.2 c-0.09334 -0.08 -0.17668 -0.19334 -0.25002 -0.34 s-0.11 -0.33332 -0.11 -0.55998 l0 -1.32 l2.78 0 c0.16 0 0.3 0.08 0.42 0.24 s0.2 0.30666 0.24 0.44 c0.02666 0.09334 0.11332 0.32334 0.25998 0.69 s0.32666 0.80666 0.54 1.32 s0.44334 1.0633 0.69 1.65 s0.47666 1.14 0.69 1.66 s0.39668 0.97334 0.55002 1.36 s0.25 0.63332 0.29 0.73998 c0.01334 0.02666 0.02334 0.02666 0.03 0 s0.01 -0.06 0.01 -0.1 l0 -5.38 c0 -0.12 -0.02666 -0.21 -0.08 -0.27 s-0.11334 -0.11 -0.18 -0.15 c-0.09334 -0.06666 -0.18668 -0.17 -0.28002 -0.31 s-0.14 -0.33 -0.14 -0.57 l0 -1.32 l4 0 z M55.120000000000005 20.14 c-1.24 0 -2.22 -0.27666 -2.94 -0.83 s-1.08 -1.3433 -1.08 -2.37 l0 -8.88 c0 -1.0267 0.35666 -1.82 1.07 -2.38 s1.6967 -0.84 2.95 -0.84 c1.2667 0 2.2434 0.28 2.93 0.84 s1.03 1.3533 1.03 2.38 l0 8.88 c0 1.0267 -0.34666 1.8167 -1.04 2.37 s-1.6667 0.83 -2.92 0.83 z M56.300000000000004 8.3 c0 -0.24 -0.04664 -0.43336 -0.13998 -0.58002 s-0.20334 -0.26 -0.33 -0.34 s-0.25666 -0.13666 -0.39 -0.17 s-0.24 -0.05 -0.32 -0.05 s-0.18666 0.01334 -0.32 0.04 s-0.26668 0.07666 -0.40002 0.15 s-0.25 0.17668 -0.35 0.31002 s-0.15 0.31334 -0.15 0.54 l0 8.56 c0 0.2 0.04 0.36666 0.12 0.5 s0.18 0.24 0.3 0.32 s0.25334 0.14 0.4 0.18 s0.28 0.06 0.4 0.06 c0.28 0 0.54666 -0.08 0.8 -0.24 s0.38 -0.44 0.38 -0.84 l0 -8.44 z M68.4 16.64 l-0.000078126 2.58 c0 0.26666 -0.07334 0.46332 -0.22 0.58998 s-0.27332 0.19 -0.37998 0.19 l-0.28 0 l-7.02 0 l0 -1.28 c0 -0.29334 0.03666 -0.51668 0.11 -0.67002 s0.17668 -0.26334 0.31002 -0.33 c0.06666 -0.02666 0.12666 -0.07332 0.18 -0.13998 s0.08 -0.14666 0.08 -0.24 l0 -9.58 l0 -0.12 c0 -0.13334 -0.01666 -0.22668 -0.05 -0.28002 s-0.08334 -0.10668 -0.15 -0.16002 c-0.10666 -0.08 -0.21332 -0.19334 -0.31998 -0.34 s-0.16 -0.33332 -0.16 -0.55998 l0 -1.26 l4.12 0 l0 1.26 c0 0.22666 -0.05334 0.41332 -0.16 0.55998 s-0.21332 0.26 -0.31998 0.34 c-0.06666 0.05334 -0.11666 0.10668 -0.15 0.16002 s-0.05 0.14668 -0.05 0.28002 l0 9.72 c0 0.22666 0.08666 0.34 0.26 0.34 l1.48 0 c0.09334 0 0.18334 -0.03334 0.27 -0.1 s0.15 -0.13332 0.19 -0.19998 c0.06666 -0.13334 0.18 -0.29334 0.34 -0.48 s0.38666 -0.28 0.68 -0.28 l1.24 0 z M73.84 20.14 c-1.24 0 -2.22 -0.27666 -2.94 -0.83 s-1.08 -1.3433 -1.08 -2.37 l0 -8.88 c0 -1.0267 0.35666 -1.82 1.07 -2.38 s1.6967 -0.84 2.95 -0.84 c1.2667 0 2.2434 0.28 2.93 0.84 s1.03 1.3533 1.03 2.38 l0 8.88 c0 1.0267 -0.34666 1.8167 -1.04 2.37 s-1.6667 0.83 -2.92 0.83 z M75.02000000000001 8.3 c0 -0.24 -0.04664 -0.43336 -0.13998 -0.58002 s-0.20334 -0.26 -0.33 -0.34 s-0.25666 -0.13666 -0.39 -0.17 s-0.24 -0.05 -0.32 -0.05 s-0.18666 0.01334 -0.32 0.04 s-0.26668 0.07666 -0.40002 0.15 s-0.25 0.17668 -0.35 0.31002 s-0.15 0.31334 -0.15 0.54 l0 8.56 c0 0.2 0.04 0.36666 0.12 0.5 s0.18 0.24 0.3 0.32 s0.25334 0.14 0.4 0.18 s0.28 0.06 0.4 0.06 c0.28 0 0.54666 -0.08 0.8 -0.24 s0.38 -0.44 0.38 -0.84 l0 -8.44 z M87.50000000000001 19.82 c0 0.13334 -0.07334 0.20004 -0.22 0.20004 l-0.6 0 c-0.12 0 -0.19334 -0.04666 -0.22 -0.14 c-0.06666 -0.10666 -0.14332 -0.18332 -0.22998 -0.22998 s-0.17666 -0.07332 -0.27 -0.07998 s-0.18334 0.0033398 -0.27 0.03 s-0.15666 0.05332 -0.21 0.07998 c-0.53334 0.29334 -1.2133 0.44 -2.04 0.44 c-0.54666 0 -1.0567 -0.06 -1.53 -0.18 s-0.88668 -0.30334 -1.24 -0.55 s-0.63334 -0.56 -0.84 -0.94 s-0.31 -0.82334 -0.31 -1.33 l0 -9.28 c0 -1.0267 0.33666 -1.7867 1.01 -2.28 s1.6367 -0.74 2.89 -0.74 c1.24 0 2.23 0.25 2.97 0.75 s1.11 1.2567 1.11 2.27 l0 1.36 l-1.8 0 c-0.37334 0 -0.64 -0.07 -0.8 -0.21 s-0.24 -0.37 -0.24 -0.69 l0 -0.02 c0 -0.37334 -0.11666 -0.65668 -0.35 -0.85002 s-0.53 -0.29 -0.89 -0.29 c-0.37334 0 -0.66668 0.09334 -0.88002 0.28 s-0.32 0.49332 -0.32 0.91998 l0 7.96 c0 0.53334 0.12334 0.91334 0.37 1.14 s0.55 0.34 0.91 0.34 c0.37334 0 0.68334 -0.11666 0.93 -0.35 s0.37 -0.58334 0.37 -1.05 l0 -1.64 c0 -0.14666 -0.03 -0.25666 -0.09 -0.33 s-0.14334 -0.14334 -0.25 -0.21 c-0.24 -0.13334 -0.36 -0.56668 -0.36 -1.3 l0 -0.72 l2.78 0 c0.2 0 0.35334 0.06334 0.46 0.19 s0.16 0.29 0.16 0.49 l0 6.96 z M92.34000000000002 17.4 c0 0.14666 0.02 0.24666 0.06 0.3 s0.08666 0.1 0.14 0.14 c0.10666 0.08 0.21332 0.19334 0.31998 0.34 s0.16 0.33332 0.16 0.55998 l0 1.26 l-4.1 0 l0 -1.26 c0 -0.22666 0.05334 -0.41332 0.16 -0.55998 s0.21332 -0.26 0.31998 -0.34 c0.06666 -0.04 0.11666 -0.08666 0.15 -0.14 s0.05 -0.15334 0.05 -0.3 l0 -9.74 l0 -0.02 c0 -0.13334 -0.01666 -0.22668 -0.05 -0.28002 s-0.08334 -0.10668 -0.15 -0.16002 c-0.10666 -0.08 -0.21332 -0.19334 -0.31998 -0.34 s-0.16 -0.33332 -0.16 -0.55998 l0 -1.26 l4.1 0 l0 1.26 c0 0.22666 -0.05334 0.41332 -0.16 0.55998 s-0.21332 0.26 -0.31998 0.34 c-0.05334 0.05334 -0.1 0.10668 -0.14 0.16002 s-0.06 0.14668 -0.06 0.28002 l0 0.02 l0 9.74 l0 0 z M97.80000000000001 7.359999999999999 c-0.06666 0 -0.12998 0.030058 -0.18998 0.090058 s-0.09 0.12334 -0.09 0.19 l0 3.32 c0 0.09334 0.03 0.16334 0.09 0.21 s0.13 0.07 0.21 0.07 l2.52 0 c0.06666 0 0.13666 0.02334 0.21 0.07 s0.11 0.12332 0.11 0.22998 l0 1.6 c0 0.18666 -0.1 0.28 -0.3 0.28 l-2.54 0 c-0.2 0 -0.3 0.08666 -0.3 0.26 l0 3.74 c0 0.08 0.03334 0.14666 0.1 0.2 s0.14 0.08 0.22 0.08 l1.6 0 c0.12 0 0.21334 -0.06666 0.28 -0.2 c0.02666 -0.06666 0.06 -0.14666 0.1 -0.24 s0.09666 -0.18 0.17 -0.26 s0.16334 -0.15 0.27 -0.21 s0.23332 -0.09 0.37998 -0.09 l1.24 0 l0 2.8 c0 0.14666 -0.07334 0.26666 -0.22 0.36 s-0.29332 0.14 -0.43998 0.14 l-1.3 0 l-4.58 0 l-1.2 0 l0 -1.2 c0 -0.29334 0.04 -0.51668 0.12 -0.67002 s0.18666 -0.26334 0.32 -0.33 c0.16 -0.09334 0.24 -0.23334 0.24 -0.42 l0 -9.72 c0 -0.21334 -0.08666 -0.36668 -0.26 -0.46002 c-0.13334 -0.06666 -0.23668 -0.17 -0.31002 -0.31 s-0.11 -0.34334 -0.11 -0.61 l0 -1.26 l7.16 0 c0.16 0 0.29666 0.06 0.41 0.18 s0.17 0.23334 0.17 0.34 l0 2.64 l-1.18 0 c-0.26666 0 -0.48 -0.06666 -0.64 -0.2 s-0.27334 -0.26 -0.34 -0.38 c-0.09334 -0.16 -0.23334 -0.24 -0.42 -0.24 l-1.5 0 l0 0 z M106.26 9.52 c0 0.26666 0.12336 0.50996 0.37002 0.72996 s0.55666 0.44 0.93 0.66 s0.77334 0.45 1.2 0.69 s0.82666 0.51334 1.2 0.82 s0.68334 0.65666 0.93 1.05 s0.37 0.85668 0.37 1.39 l0 2.3 c0 0.50666 -0.11666 0.95 -0.35 1.33 s-0.53668 0.69334 -0.91002 0.94 s-0.79668 0.43 -1.27 0.55 s-0.95668 0.18 -1.45 0.18 s-0.98 -0.06 -1.46 -0.18 s-0.90666 -0.30334 -1.28 -0.55 s-0.67334 -0.56 -0.9 -0.94 s-0.34 -0.82334 -0.34 -1.33 l0 -1.7 l1.64 0 c0.36 0 0.63 0.11 0.81 0.33 s0.27 0.48334 0.27 0.79 l0 0.4 c0 0.21334 0.12334 0.4 0.37 0.56 s0.54332 0.24 0.88998 0.24 s0.63666 -0.09666 0.87 -0.29 s0.35 -0.38334 0.35 -0.57 l0 -1.56 c0 -0.44 -0.12334 -0.80334 -0.37 -1.09 s-0.55332 -0.54 -0.91998 -0.76 s-0.76666 -0.43 -1.2 -0.63 s-0.83334 -0.44334 -1.2 -0.73 s-0.67332 -0.63332 -0.91998 -1.04 s-0.37 -0.92332 -0.37 -1.55 l0 -1.68 c0 -0.53334 0.10334 -0.99 0.31 -1.37 s0.48332 -0.69334 0.82998 -0.94 s0.74666 -0.42666 1.2 -0.54 s0.92668 -0.17 1.42 -0.17 s0.96668 0.06334 1.42 0.19 s0.85 0.31332 1.19 0.55998 s0.61 0.56 0.81 0.94 s0.3 0.82334 0.3 1.33 l0 1.68 l-1.5 0 c-0.33334 0 -0.61334 -0.1 -0.84 -0.3 s-0.34 -0.46 -0.34 -0.78 l0 -0.42 c0 -0.28 -0.11 -0.49666 -0.33 -0.65 s-0.46334 -0.23 -0.73 -0.23 c-0.28 0 -0.51666 0.08 -0.71 0.24 s-0.29 0.34 -0.29 0.54 l0 1.56 z"/></g>
			</g>
		</svg>
	